# xmcd
#
# Track frame offsets: 
#        150
#        12707
#        30470
#        48752
#        65570
#        86530
#        99180
#        110890
#        128115
#        139967
#        155330
#        165167
#        187557
#        203527
#        221080
#        229072
#        241240
#
# Disc length: 3222 seconds
#
# Revision: 3
# Processed by: cddbd v1.5.2PL0 Copyright (c) Steve Scherf et al.
# Submitted via: ExactAudioCopyFreeDBPlugin 1.0
#
DISCID=d70c9411
DTITLE=Marian McPartland's Piano Jazz - With Guest - Elvis Costello - 
DTITLE=05-06-2003
DYEAR=2005
DGENRE=Jazz
TTITLE0=Conversation
TTITLE1=At Last
TTITLE2=Conversation
TTITLE3=My Funny Valentine
TTITLE4=Conversation
TTITLE5=Almost Blue
TTITLE6=Conversation
TTITLE7=Very Thought of You
TTITLE8=Conversation
TTITLE9=Gloomy Sunday
TTITLE10=Conversation
TTITLE11=You Don't Know What Love Is
TTITLE12=Conversation
TTITLE13=They Didn't Believe Me
TTITLE14=Conversation
TTITLE15=I'm In The Mood Again
TTITLE16=Conversation
EXTD=
EXTT0=
EXTT1=
EXTT2=
EXTT3=
EXTT4=
EXTT5=
EXTT6=
EXTT7=
EXTT8=
EXTT9=
EXTT10=
EXTT11=
EXTT12=
EXTT13=
EXTT14=
EXTT15=
EXTT16=
PLAYORDER=
